<svg xmlns="http://www.w3.org/2000/svg" width="1600" height="1000" viewBox="0 0 1600 1000" role="img" aria-label="Abstract bamboo shadows">
  <defs>
    <filter id="soften" x="-20%" y="-20%" width="140%" height="140%">
      <feGaussianBlur stdDeviation="1.8"/>
    </filter>
    <linearGradient id="stem" x1="0" y1="0" x2="0" y2="1">
      <stop offset="0" stop-color="#245c5a" stop-opacity="0.11"/>
      <stop offset="1" stop-color="#245c5a" stop-opacity="0.03"/>
    </linearGradient>
    <linearGradient id="leaf" x1="0" y1="0" x2="1" y2="1">
      <stop offset="0" stop-color="#1d7b7f" stop-opacity="0.1"/>
      <stop offset="1" stop-color="#789b9a" stop-opacity="0.025"/>
    </linearGradient>
    <radialGradient id="celadonWash" cx="50%" cy="42%" r="70%">
      <stop offset="0" stop-color="#dbeee9" stop-opacity="0.46"/>
      <stop offset="0.58" stop-color="#edf4f0" stop-opacity="0.22"/>
      <stop offset="1" stop-color="#f7f7f1" stop-opacity="0"/>
    </radialGradient>
  </defs>

  <rect width="1600" height="1000" fill="url(#celadonWash)"/>

  <g filter="url(#soften)" stroke="url(#stem)" stroke-width="5" stroke-linecap="round" fill="none">
    <path d="M104 1040 C142 780 154 486 132 -60"/>
    <path d="M210 1034 C236 716 260 440 244 -80"/>
    <path d="M1392 1060 C1368 780 1362 498 1408 -62"/>
    <path d="M1504 1044 C1464 744 1468 430 1518 -96"/>
  </g>

  <g filter="url(#soften)" fill="url(#leaf)">
    <path d="M160 142 C282 114 382 130 470 188 C346 210 246 202 160 142Z"/>
    <path d="M126 286 C250 254 352 270 438 330 C312 350 214 344 126 286Z"/>
    <path d="M196 468 C316 426 430 440 522 500 C394 532 292 524 196 468Z"/>
    <path d="M76 650 C206 612 316 630 398 696 C268 718 164 710 76 650Z"/>
    <path d="M246 770 C360 724 474 736 566 798 C444 834 340 828 246 770Z"/>
    <path d="M1450 110 C1328 92 1228 118 1148 184 C1274 194 1370 180 1450 110Z"/>
    <path d="M1502 286 C1384 250 1276 258 1184 314 C1306 344 1412 340 1502 286Z"/>
    <path d="M1394 466 C1274 428 1164 444 1076 506 C1204 532 1306 522 1394 466Z"/>
    <path d="M1534 628 C1416 596 1308 610 1218 672 C1342 696 1446 688 1534 628Z"/>
    <path d="M1338 782 C1228 740 1118 752 1024 812 C1146 844 1248 838 1338 782Z"/>
  </g>

  <g opacity="0.16">
    <path d="M0 850 C240 812 420 878 636 838 C842 800 1040 824 1210 856 C1364 886 1490 868 1600 832" fill="none" stroke="#b8a46e" stroke-width="1"/>
    <path d="M0 890 C266 852 444 912 668 872 C884 834 1068 858 1238 890 C1394 920 1506 902 1600 870" fill="none" stroke="#2f6f70" stroke-width="1"/>
  </g>
</svg>
